<svg xmlns="http://www.w3.org/2000/svg" viewBox="0 0 128 128" width="128" height="128">
  <defs>
    <linearGradient id="tbBgGrad" x1="0%" y1="0%" x2="100%" y2="100%">
      <stop offset="0%" stop-color="#111827"/>
      <stop offset="100%" stop-color="#0B0F17"/>
    </linearGradient>
    <linearGradient id="tbBorderGrad" x1="0%" y1="0%" x2="100%" y2="100%">
      <stop offset="0%" stop-color="#10B981" stop-opacity="0.6"/>
      <stop offset="100%" stop-color="#064E3B" stop-opacity="0.2"/>
    </linearGradient>
    <linearGradient id="gradCubeTop" x1="0%" y1="0%" x2="100%" y2="100%">
      <stop offset="0%" stop-color="#34D399"/>
      <stop offset="100%" stop-color="#10B981"/>
    </linearGradient>
    <linearGradient id="gradCubeLeft" x1="0%" y1="0%" x2="0%" y2="100%">
      <stop offset="0%" stop-color="#059669"/>
      <stop offset="100%" stop-color="#047857"/>
    </linearGradient>
    <linearGradient id="gradCubeRight" x1="0%" y1="0%" x2="0%" y2="100%">
      <stop offset="0%" stop-color="#047857"/>
      <stop offset="100%" stop-color="#064E3B"/>
    </linearGradient>
    <filter id="glow" x="-20%" y="-20%" width="140%" height="140%">
      <feGaussianBlur stdDeviation="4" result="blur" />
      <feComposite in="SourceGraphic" in2="blur" operator="over" />
    </filter>
  </defs>

  <!-- Container Base Plate -->
  <rect x="8" y="8" width="112" height="112" rx="26" fill="url(#tbBgGrad)" stroke="url(#tbBorderGrad)" stroke-width="2.5"/>

  <!-- Subtle Inner Grid / Tech Dots -->
  <circle cx="24" cy="24" r="1.8" fill="#10B981" opacity="0.4"/>
  <circle cx="104" cy="24" r="1.8" fill="#10B981" opacity="0.4"/>
  <circle cx="24" cy="104" r="1.8" fill="#10B981" opacity="0.4"/>
  <circle cx="104" cy="104" r="1.8" fill="#10B981" opacity="0.4"/>

  <!-- 3D Test Container / Toolbox Cube -->
  <!-- Top Face (Lid) -->
  <polygon points="64,28 98,46 64,64 30,46" fill="url(#gradCubeTop)"/>
  <!-- Top Inner Accent -->
  <polygon points="64,34 90,48 64,61 38,48" fill="#6EE7B7" opacity="0.2"/>

  <!-- Left Face (Execution & Verification) -->
  <polygon points="30,46 64,64 64,100 30,82" fill="url(#gradCubeLeft)"/>

  <!-- Right Face (Data & Inspection) -->
  <polygon points="64,64 98,46 98,82 64,100" fill="url(#gradCubeRight)"/>

  <!-- Crisp Highlights on Edges -->
  <line x1="64" y1="28" x2="98" y2="46" stroke="#A7F3D0" stroke-width="1.5" stroke-opacity="0.7"/>
  <line x1="64" y1="28" x2="30" y2="46" stroke="#A7F3D0" stroke-width="1.5" stroke-opacity="0.7"/>
  <line x1="64" y1="64" x2="64" y2="100" stroke="#34D399" stroke-width="2" stroke-opacity="0.6"/>

  <!-- Left Face Checkmark (Passing Test Assertion) -->
  <path d="M41,68 L48,75 L56,62" fill="none" stroke="#FFFFFF" stroke-width="4" stroke-linecap="round" stroke-linejoin="round"/>

  <!-- Right Face Slits / Test Metric Levels -->
  <line x1="74" y1="66" x2="88" y2="58" stroke="#34D399" stroke-width="2.5" stroke-linecap="round" stroke-opacity="0.9"/>
  <line x1="74" y1="76" x2="88" y2="68" stroke="#34D399" stroke-width="2.5" stroke-linecap="round" stroke-opacity="0.9"/>
  <line x1="74" y1="86" x2="82" y2="82" stroke="#34D399" stroke-width="2.5" stroke-linecap="round" stroke-opacity="0.6"/>
</svg>
